<?xml version="1.0" encoding="utf-8"?>
<!-- Generator: Adobe Illustrator 27.9.0, SVG Export Plug-In . SVG Version: 6.00 Build 0)  -->
<svg version="1.1" id="Calque_1" xmlns="http://www.w3.org/2000/svg" xmlns:xlink="http://www.w3.org/1999/xlink" x="0px" y="0px"
	 viewBox="0 0 491 902.5" style="enable-background:new 0 0 491 902.5;" xml:space="preserve">
<style type="text/css">
	.st0{fill:#E5EAEA;}
	.st1{enable-background:new    ;}
	.st2{fill:#313333;}
	.st3{fill:#F7851F;}
	.st4{fill:#FFFFFF;}
	.st5{fill:#FF2F51;}
	.st6{fill:#005C79;}
	.st7{fill:#00ABAF;}
	.st8{fill:none;stroke:#A7D3DB;stroke-width:3;stroke-miterlimit:10;}
	.st9{fill:none;stroke:#A7D3DB;stroke-width:3;stroke-miterlimit:10;stroke-dasharray:11.72,11.72;}
	.st10{fill:none;stroke:#A7D3DB;stroke-width:3;stroke-miterlimit:10;stroke-dasharray:11.97,11.97;}
	.st11{fill:none;stroke:#A7D3DB;stroke-width:3;stroke-miterlimit:10;stroke-dasharray:12;}
	.st12{fill:#059DC1;}
	.st13{fill:#F7851F;stroke:#FFFFFF;stroke-width:4;stroke-miterlimit:10;}
	.st14{fill:#005C79;stroke:#FFFFFF;stroke-width:4;stroke-miterlimit:10;}
	.st15{fill:#00ABAF;stroke:#FFFFFF;stroke-width:4;stroke-miterlimit:10;}
	.st16{fill:#FF2F51;stroke:#FFFFFF;stroke-width:4;stroke-miterlimit:10;}
</style>
<rect x="64.1" y="257.6" class="st0" width="385.1" height="331.8"/>
<g class="st1">
	<path class="st2" d="M93.5,357.2c-3.2-0.9-4.9-3-4.9-6.2v-2.9c0-2.1-0.9-3.1-2.6-3.1v-2.4c1.8,0,2.6-1,2.6-3.1v-2.9
		c0-1.6,0.5-3,1.3-4c0.8-1,2-1.7,3.6-2.2l0.7,1.9c-1.6,0.5-2.4,1.9-2.4,4.2v3c0,2.1-0.8,3.5-2.4,4.3c1.6,0.8,2.4,2.3,2.4,4.4v2.9
		c0.1,2.3,0.9,3.7,2.4,4.2L93.5,357.2z"/>
</g>
<g class="st1">
	<path class="st2" d="M116.9,365.1l-0.5,5.3h-1.9v-7.2h2.4V365.1z M121,365.1l-0.5,5.3h-1.9v-7.2h2.4V365.1z"/>
	<path class="st2" d="M128,365.9v3.6h2.6v2.5H128v8.3c0,0.6,0.1,1,0.3,1.2c0.2,0.3,0.6,0.4,1.2,0.4c0.4,0,0.8,0,1.2-0.1v2.6
		c-0.8,0.2-1.5,0.3-2.2,0.3c-2.6,0-3.8-1.4-3.8-4.2v-8.4h-2.4v-2.5h2.4v-3.6H128z"/>
	<path class="st2" d="M133.2,365.6c0-0.5,0.2-0.9,0.5-1.3c0.3-0.3,0.8-0.5,1.4-0.5s1.1,0.2,1.4,0.5s0.5,0.8,0.5,1.3
		c0,0.5-0.2,0.9-0.5,1.3s-0.8,0.5-1.4,0.5s-1.1-0.2-1.4-0.5C133.4,366.6,133.2,366.1,133.2,365.6z M136.7,384.3h-3.3v-14.8h3.3
		V384.3z"/>
	<path class="st2" d="M144.5,365.9v3.6h2.6v2.5h-2.6v8.3c0,0.6,0.1,1,0.3,1.2c0.2,0.3,0.6,0.4,1.2,0.4c0.4,0,0.8,0,1.2-0.1v2.6
		c-0.8,0.2-1.5,0.3-2.2,0.3c-2.6,0-3.8-1.4-3.8-4.2v-8.4h-2.4v-2.5h2.4v-3.6H144.5z"/>
	<path class="st2" d="M153.2,384.3h-3.3v-21h3.3V384.3z"/>
</g>
<g class="st1">
	<path class="st2" d="M163.3,384.5c-2.1,0-3.8-0.7-5.1-2c-1.3-1.3-2-3.1-2-5.3v-0.4c0-1.5,0.3-2.8,0.9-4c0.6-1.2,1.4-2.1,2.4-2.7
		c1-0.6,2.2-1,3.4-1c2,0,3.6,0.6,4.7,1.9c1.1,1.3,1.6,3.1,1.6,5.5v1.3h-9.7c0.1,1.2,0.5,2.2,1.2,2.9c0.7,0.7,1.6,1.1,2.7,1.1
		c1.5,0,2.8-0.6,3.7-1.8l1.8,1.7c-0.6,0.9-1.4,1.6-2.4,2.1C165.6,384.3,164.5,384.5,163.3,384.5z M162.9,371.9c-0.9,0-1.6,0.3-2.2,1
		s-0.9,1.5-1.1,2.7h6.3v-0.2c-0.1-1.1-0.4-2-0.9-2.5S163.8,371.9,162.9,371.9z"/>
</g>
<g class="st1">
	<path class="st2" d="M173.7,365.1l-0.5,5.3h-1.9v-7.2h2.4V365.1z M177.8,365.1l-0.5,5.3h-1.9v-7.2h2.4V365.1z"/>
	<path class="st2" d="M182.7,369.2c0.6,0,1.1,0.2,1.4,0.5c0.3,0.4,0.5,0.8,0.5,1.3c0,0.5-0.2,1-0.5,1.3c-0.3,0.3-0.8,0.5-1.4,0.5
		c-0.6,0-1.1-0.2-1.4-0.5c-0.3-0.3-0.5-0.8-0.5-1.3s0.2-1,0.5-1.3C181.6,369.3,182.1,369.2,182.7,369.2z M182.7,380.8
		c0.6,0,1.1,0.2,1.4,0.5c0.3,0.4,0.5,0.8,0.5,1.3c0,0.5-0.2,1-0.5,1.3c-0.3,0.3-0.8,0.5-1.4,0.5c-0.6,0-1.1-0.2-1.4-0.5
		c-0.3-0.3-0.5-0.8-0.5-1.3s0.2-1,0.5-1.3C181.6,380.9,182.1,380.8,182.7,380.8z"/>
</g>
<g class="st1">
	<path class="st2" d="M197.2,365.1l-0.5,5.3h-1.9v-7.2h2.4V365.1z M201.3,365.1l-0.5,5.3h-1.9v-7.2h2.4V365.1z"/>
</g>
<g class="st1">
	<path class="st2" d="M214,379.6h-7.7l-1.6,4.6h-3.6l7.5-19.9h3.1l7.5,19.9h-3.6L214,379.6z M207.3,376.8h5.8l-2.9-8.3L207.3,376.8z
		"/>
	<path class="st2" d="M241.1,377c0,2.3-0.5,4.1-1.5,5.5s-2.4,2-4.2,2c-1.7,0-3.1-0.6-4-1.9l-0.2,1.6h-3v-21h3.3v7.6
		c1-1.1,2.2-1.7,3.9-1.7c1.8,0,3.2,0.7,4.3,2c1,1.3,1.5,3.2,1.5,5.6V377z M237.8,376.7c0-1.6-0.3-2.8-0.8-3.6
		c-0.6-0.8-1.4-1.2-2.5-1.2c-1.4,0-2.5,0.6-3,1.9v6.1c0.6,1.3,1.6,1.9,3.1,1.9c1,0,1.8-0.4,2.4-1.2c0.6-0.8,0.9-1.9,0.9-3.5V376.7z"
		/>
	<path class="st2" d="M243.3,376.7c0-1.4,0.3-2.8,0.9-3.9s1.4-2.1,2.4-2.7s2.2-0.9,3.6-0.9c2,0,3.6,0.6,4.9,1.9s1.9,3,2,5.1l0,0.8
		c0,1.5-0.3,2.8-0.8,3.9s-1.4,2-2.4,2.7s-2.2,0.9-3.6,0.9c-2.1,0-3.8-0.7-5-2.1c-1.3-1.4-1.9-3.2-1.9-5.6V376.7z M246.6,377
		c0,1.5,0.3,2.7,0.9,3.6s1.5,1.3,2.6,1.3s2-0.4,2.6-1.3s0.9-2.2,0.9-3.8c0-1.5-0.3-2.7-1-3.6s-1.5-1.3-2.6-1.3
		c-1.1,0-1.9,0.4-2.6,1.3C246.9,374,246.6,375.3,246.6,377z"/>
	<path class="st2" d="M259.2,376.7c0-1.4,0.3-2.8,0.9-3.9s1.4-2.1,2.4-2.7s2.2-0.9,3.6-0.9c2,0,3.6,0.6,4.9,1.9s1.9,3,2,5.1l0,0.8
		c0,1.5-0.3,2.8-0.8,3.9s-1.4,2-2.4,2.7s-2.2,0.9-3.6,0.9c-2.1,0-3.8-0.7-5-2.1s-1.9-3.2-1.9-5.6V376.7z M262.6,377
		c0,1.5,0.3,2.7,0.9,3.6s1.5,1.3,2.6,1.3s2-0.4,2.6-1.3s0.9-2.2,0.9-3.8c0-1.5-0.3-2.7-1-3.6s-1.5-1.3-2.6-1.3
		c-1.1,0-1.9,0.4-2.6,1.3S262.6,375.3,262.6,377z"/>
	<path class="st2" d="M280.6,377.9l-1.5,1.5v4.8h-3.3v-21h3.3v12.1l1-1.3l4.1-4.6h4l-5.5,6.2l6.1,8.6H285L280.6,377.9z"/>
	<path class="st2" d="M292.5,365.1l-0.5,5.3h-1.9v-7.2h2.4V365.1z M296.6,365.1l-0.5,5.3h-1.9v-7.2h2.4V365.1z"/>
	<path class="st2" d="M300,388.8l-1.8-1.1c0.5-0.8,0.9-1.6,1.1-2.2s0.3-1.2,0.3-1.9v-2.6h3l0,2.4c0,1-0.3,1.9-0.7,2.9
		S300.7,388.1,300,388.8z"/>
</g>
<g class="st1">
	<path class="st2" d="M116.8,397.1l-0.5,5.3h-1.9v-7.2h2.4V397.1z M121,397.1l-0.5,5.3h-1.9v-7.2h2.4V397.1z"/>
</g>
<g class="st1">
	<path class="st2" d="M132,416.3c-0.1-0.3-0.3-0.7-0.4-1.4c-1.1,1.1-2.4,1.7-3.9,1.7c-1.5,0-2.7-0.4-3.6-1.3
		c-0.9-0.8-1.4-1.9-1.4-3.1c0-1.6,0.6-2.8,1.8-3.6c1.2-0.8,2.8-1.3,5-1.3h2v-1c0-0.8-0.2-1.4-0.6-1.8c-0.4-0.5-1.1-0.7-2-0.7
		c-0.8,0-1.4,0.2-1.9,0.6c-0.5,0.4-0.7,0.9-0.7,1.4H123c0-0.8,0.3-1.6,0.8-2.3c0.5-0.7,1.3-1.3,2.2-1.7c0.9-0.4,2-0.6,3.1-0.6
		c1.7,0,3.1,0.4,4.1,1.3c1,0.9,1.6,2.1,1.6,3.7v6.7c0,1.3,0.2,2.4,0.6,3.2v0.2H132z M128.4,413.9c0.7,0,1.3-0.2,1.9-0.5
		c0.6-0.3,1-0.7,1.3-1.3v-2.8h-1.8c-1.2,0-2.2,0.2-2.8,0.6c-0.6,0.4-0.9,1-0.9,1.8c0,0.6,0.2,1.1,0.6,1.5S127.7,413.9,128.4,413.9z"
		/>
	<path class="st2" d="M147.3,414.8c-1,1.1-2.4,1.7-4.2,1.7c-1.6,0-2.8-0.5-3.6-1.4c-0.8-0.9-1.2-2.3-1.2-4.1v-9.6h3.3v9.5
		c0,1.9,0.8,2.8,2.3,2.8c1.6,0,2.7-0.6,3.3-1.7v-10.6h3.3v14.8h-3.1L147.3,414.8z"/>
	<path class="st2" d="M158.1,397.9v3.6h2.6v2.5h-2.6v8.3c0,0.6,0.1,1,0.3,1.2c0.2,0.3,0.6,0.4,1.2,0.4c0.4,0,0.8,0,1.2-0.1v2.6
		c-0.8,0.2-1.5,0.3-2.2,0.3c-2.6,0-3.8-1.4-3.8-4.2v-8.4h-2.4v-2.5h2.4v-3.6H158.1z"/>
	<path class="st2" d="M166.5,403.1c1.1-1.3,2.5-1.9,4.1-1.9c3.2,0,4.8,1.8,4.8,5.4v9.7h-3.3v-9.5c0-1-0.2-1.7-0.7-2.2
		c-0.4-0.4-1.1-0.6-1.9-0.6c-1.3,0-2.3,0.6-3,1.8v10.6h-3.3v-21h3.3V403.1z"/>
	<path class="st2" d="M178.1,408.7c0-1.4,0.3-2.8,0.9-3.9s1.4-2.1,2.4-2.7s2.2-0.9,3.6-0.9c2,0,3.6,0.6,4.9,1.9s1.9,3,2,5.1l0,0.8
		c0,1.5-0.3,2.8-0.8,3.9s-1.4,2-2.4,2.7c-1,0.6-2.2,0.9-3.6,0.9c-2.1,0-3.8-0.7-5-2.1c-1.3-1.4-1.9-3.2-1.9-5.6V408.7z M181.5,409
		c0,1.5,0.3,2.7,0.9,3.6s1.5,1.3,2.6,1.3s2-0.4,2.6-1.3c0.6-0.9,0.9-2.2,0.9-3.8c0-1.5-0.3-2.7-1-3.6s-1.5-1.3-2.6-1.3
		c-1.1,0-1.9,0.4-2.6,1.3C181.8,406,181.5,407.3,181.5,409z"/>
</g>
<g class="st1">
	<path class="st2" d="M202.4,404.5c-0.4-0.1-0.9-0.1-1.4-0.1c-1.5,0-2.5,0.6-3.1,1.8v10.1h-3.3v-14.8h3.2l0.1,1.7
		c0.8-1.3,1.9-1.9,3.3-1.9c0.5,0,0.9,0.1,1.2,0.2L202.4,404.5z"/>
</g>
<g class="st1">
	<path class="st2" d="M206.8,397.1l-0.5,5.3h-1.9v-7.2h2.4V397.1z M210.9,397.1l-0.5,5.3h-1.9v-7.2h2.4V397.1z"/>
	<path class="st2" d="M215.8,401.2c0.6,0,1.1,0.2,1.4,0.5c0.3,0.4,0.5,0.8,0.5,1.3c0,0.5-0.2,1-0.5,1.3c-0.3,0.3-0.8,0.5-1.4,0.5
		c-0.6,0-1.1-0.2-1.4-0.5c-0.3-0.3-0.5-0.8-0.5-1.3s0.2-1,0.5-1.3C214.7,401.3,215.2,401.2,215.8,401.2z M215.8,412.8
		c0.6,0,1.1,0.2,1.4,0.5c0.3,0.4,0.5,0.8,0.5,1.3c0,0.5-0.2,1-0.5,1.3c-0.3,0.3-0.8,0.5-1.4,0.5c-0.6,0-1.1-0.2-1.4-0.5
		c-0.3-0.3-0.5-0.8-0.5-1.3s0.2-1,0.5-1.3C214.7,412.9,215.2,412.8,215.8,412.8z"/>
	<path class="st2" d="M230.3,397.1l-0.5,5.3h-1.9v-7.2h2.4V397.1z M234.4,397.1l-0.5,5.3H232v-7.2h2.4V397.1z"/>
	<path class="st2" d="M238.2,418h-2.6l7.8-21.6h2.6L238.2,418z"/>
	<path class="st2" d="M257.2,416.3c-0.1-0.3-0.3-0.7-0.4-1.4c-1.1,1.1-2.4,1.7-3.9,1.7c-1.5,0-2.7-0.4-3.6-1.3s-1.4-1.9-1.4-3.1
		c0-1.6,0.6-2.8,1.8-3.6s2.8-1.3,5-1.3h2v-1c0-0.8-0.2-1.4-0.6-1.8s-1.1-0.7-2-0.7c-0.8,0-1.4,0.2-1.9,0.6s-0.7,0.9-0.7,1.4h-3.3
		c0-0.8,0.3-1.6,0.8-2.3s1.3-1.3,2.2-1.7s2-0.6,3.1-0.6c1.7,0,3.1,0.4,4.1,1.3s1.6,2.1,1.6,3.7v6.7c0,1.3,0.2,2.4,0.6,3.2v0.2H257.2
		z M253.6,413.9c0.7,0,1.3-0.2,1.9-0.5s1-0.7,1.3-1.3v-2.8h-1.8c-1.2,0-2.2,0.2-2.8,0.6s-0.9,1-0.9,1.8c0,0.6,0.2,1.1,0.6,1.5
		S252.9,413.9,253.6,413.9z"/>
	<path class="st2" d="M272.5,414.8c-1,1.1-2.4,1.7-4.2,1.7c-1.6,0-2.8-0.5-3.6-1.4s-1.2-2.3-1.2-4.1v-9.6h3.3v9.5
		c0,1.9,0.8,2.8,2.3,2.8c1.6,0,2.7-0.6,3.3-1.7v-10.6h3.3v14.8h-3.1L272.5,414.8z"/>
	<path class="st2" d="M283.2,397.9v3.6h2.6v2.5h-2.6v8.3c0,0.6,0.1,1,0.3,1.2s0.6,0.4,1.2,0.4c0.4,0,0.8,0,1.2-0.1v2.6
		c-0.8,0.2-1.5,0.3-2.2,0.3c-2.6,0-3.8-1.4-3.8-4.2v-8.4h-2.4v-2.5h2.4v-3.6H283.2z"/>
	<path class="st2" d="M291.7,403.1c1.1-1.3,2.5-1.9,4.1-1.9c3.2,0,4.8,1.8,4.8,5.4v9.7h-3.3v-9.5c0-1-0.2-1.7-0.7-2.2
		s-1.1-0.6-1.9-0.6c-1.3,0-2.3,0.6-3,1.8v10.6h-3.3v-21h3.3V403.1z"/>
	<path class="st2" d="M303.3,408.7c0-1.4,0.3-2.8,0.9-3.9s1.4-2.1,2.4-2.7s2.2-0.9,3.6-0.9c2,0,3.6,0.6,4.9,1.9s1.9,3,2,5.1l0,0.8
		c0,1.5-0.3,2.8-0.8,3.9s-1.4,2-2.4,2.7s-2.2,0.9-3.6,0.9c-2.1,0-3.8-0.7-5-2.1s-1.9-3.2-1.9-5.6V408.7z M306.6,409
		c0,1.5,0.3,2.7,0.9,3.6s1.5,1.3,2.6,1.3s2-0.4,2.6-1.3s0.9-2.2,0.9-3.8c0-1.5-0.3-2.7-1-3.6s-1.5-1.3-2.6-1.3
		c-1.1,0-1.9,0.4-2.6,1.3S306.6,407.3,306.6,409z"/>
	<path class="st2" d="M327.6,404.5c-0.4-0.1-0.9-0.1-1.4-0.1c-1.5,0-2.5,0.6-3.1,1.8v10.1h-3.3v-14.8h3.2l0.1,1.7
		c0.8-1.3,1.9-1.9,3.3-1.9c0.5,0,0.9,0.1,1.2,0.2L327.6,404.5z"/>
	<path class="st2" d="M338,412.3c0-0.6-0.2-1-0.7-1.4s-1.3-0.6-2.4-0.8s-2.1-0.5-2.8-0.9c-1.7-0.8-2.5-2-2.5-3.5
		c0-1.3,0.5-2.3,1.6-3.2s2.4-1.3,4.1-1.3c1.8,0,3.2,0.4,4.3,1.3s1.6,2,1.6,3.4h-3.3c0-0.6-0.2-1.2-0.7-1.6s-1.1-0.6-1.9-0.6
		c-0.7,0-1.3,0.2-1.8,0.5s-0.7,0.8-0.7,1.4c0,0.5,0.2,0.9,0.6,1.2s1.3,0.6,2.6,0.9s2.3,0.6,3.1,1s1.3,0.9,1.7,1.4s0.5,1.2,0.5,2
		c0,1.3-0.6,2.4-1.7,3.2s-2.5,1.2-4.3,1.2c-1.2,0-2.3-0.2-3.2-0.7s-1.7-1-2.2-1.8s-0.8-1.6-0.8-2.5h3.2c0,0.8,0.3,1.4,0.9,1.8
		s1.3,0.6,2.2,0.6c0.9,0,1.5-0.2,2-0.5S338,412.8,338,412.3z"/>
	<path class="st2" d="M345.1,418h-2.6l7.8-21.6h2.6L345.1,418z"/>
	<path class="st2" d="M364,416.3h-3.3v-16l-4.9,1.7v-2.8l7.8-2.9h0.4V416.3z"/>
	<path class="st2" d="M373.2,397.1l-0.5,5.3h-1.9v-7.2h2.4V397.1z M377.3,397.1l-0.5,5.3H375v-7.2h2.4V397.1z"/>
	<path class="st2" d="M380.7,420.8l-1.8-1.1c0.5-0.8,0.9-1.6,1.1-2.2s0.3-1.2,0.3-1.9v-2.6h3l0,2.4c0,1-0.3,1.9-0.7,2.9
		S381.5,420.1,380.7,420.8z"/>
</g>
<g class="st1">
	<path class="st2" d="M116.9,429.1l-0.5,5.3h-1.9v-7.2h2.4V429.1z M121,429.1l-0.5,5.3h-1.9v-7.2h2.4V429.1z"/>
	<path class="st2" d="M131.6,436.5c-0.4-0.1-0.9-0.1-1.4-0.1c-1.5,0-2.5,0.6-3.1,1.8v10.1h-3.3v-14.8h3.2l0.1,1.7
		c0.8-1.3,1.9-1.9,3.3-1.9c0.5,0,0.9,0.1,1.2,0.2L131.6,436.5z"/>
</g>
<g class="st1">
	<path class="st2" d="M140.2,448.5c-2.1,0-3.8-0.7-5.1-2s-2-3.1-2-5.3v-0.4c0-1.5,0.3-2.8,0.9-4s1.4-2.1,2.4-2.7s2.2-1,3.4-1
		c2,0,3.6,0.6,4.7,1.9s1.6,3.1,1.6,5.5v1.3h-9.7c0.1,1.2,0.5,2.2,1.2,2.9s1.6,1.1,2.7,1.1c1.5,0,2.8-0.6,3.7-1.8l1.8,1.7
		c-0.6,0.9-1.4,1.6-2.4,2.1S141.5,448.5,140.2,448.5z M139.8,435.9c-0.9,0-1.6,0.3-2.2,1s-0.9,1.5-1.1,2.7h6.3v-0.2
		c-0.1-1.1-0.4-2-0.9-2.5S140.8,435.9,139.8,435.9z"/>
</g>
<g class="st1">
	<path class="st2" d="M153.8,444.1l3.1-10.6h3.4l-5.1,14.8h-2.9l-5.2-14.8h3.4L153.8,444.1z"/>
	<path class="st2" d="M162.4,429.6c0-0.5,0.2-0.9,0.5-1.3c0.3-0.3,0.8-0.5,1.4-0.5s1.1,0.2,1.4,0.5s0.5,0.8,0.5,1.3
		c0,0.5-0.2,0.9-0.5,1.3s-0.8,0.5-1.4,0.5s-1.1-0.2-1.4-0.5C162.6,430.6,162.4,430.1,162.4,429.6z M165.9,448.3h-3.3v-14.8h3.3
		V448.3z"/>
	<path class="st2" d="M176.1,448.5c-2.1,0-3.8-0.7-5.1-2c-1.3-1.3-2-3.1-2-5.3v-0.4c0-1.5,0.3-2.8,0.9-4c0.6-1.2,1.4-2.1,2.4-2.7
		c1-0.6,2.2-1,3.4-1c2,0,3.6,0.6,4.7,1.9c1.1,1.3,1.6,3.1,1.6,5.5v1.3h-9.7c0.1,1.2,0.5,2.2,1.2,2.9c0.7,0.7,1.6,1.1,2.7,1.1
		c1.5,0,2.8-0.6,3.7-1.8l1.8,1.7c-0.6,0.9-1.4,1.6-2.4,2.1C178.4,448.3,177.3,448.5,176.1,448.5z M175.7,435.9c-0.9,0-1.6,0.3-2.2,1
		s-0.9,1.5-1.1,2.7h6.3v-0.2c-0.1-1.1-0.4-2-0.9-2.5S176.6,435.9,175.7,435.9z"/>
	<path class="st2" d="M197.6,443.7l2.4-10.2h3.2l-4,14.8h-2.7l-3.2-10.2l-3.1,10.2h-2.7l-4-14.8h3.2l2.4,10.1l3-10.1h2.5
		L197.6,443.7z"/>
	<path class="st2" d="M213.7,444.3c0-0.6-0.2-1-0.7-1.4c-0.5-0.3-1.3-0.6-2.4-0.8c-1.1-0.2-2.1-0.5-2.8-0.9c-1.7-0.8-2.5-2-2.5-3.5
		c0-1.3,0.5-2.3,1.6-3.2c1.1-0.9,2.4-1.3,4.1-1.3c1.8,0,3.2,0.4,4.3,1.3c1.1,0.9,1.6,2,1.6,3.4h-3.3c0-0.6-0.2-1.2-0.7-1.6
		c-0.5-0.4-1.1-0.6-1.9-0.6c-0.7,0-1.3,0.2-1.8,0.5c-0.5,0.3-0.7,0.8-0.7,1.4c0,0.5,0.2,0.9,0.6,1.2c0.4,0.3,1.3,0.6,2.6,0.9
		c1.3,0.3,2.3,0.6,3.1,1c0.7,0.4,1.3,0.9,1.7,1.4c0.4,0.6,0.5,1.2,0.5,2c0,1.3-0.6,2.4-1.7,3.2c-1.1,0.8-2.5,1.2-4.3,1.2
		c-1.2,0-2.3-0.2-3.2-0.7c-0.9-0.4-1.7-1-2.2-1.8c-0.5-0.8-0.8-1.6-0.8-2.5h3.2c0,0.8,0.3,1.4,0.9,1.8s1.3,0.6,2.2,0.6
		c0.9,0,1.5-0.2,2-0.5C213.5,445.2,213.7,444.8,213.7,444.3z"/>
	<path class="st2" d="M221.9,429.1l-0.5,5.3h-1.9v-7.2h2.4V429.1z M226,429.1l-0.5,5.3h-1.9v-7.2h2.4V429.1z"/>
	<path class="st2" d="M230.9,433.2c0.6,0,1.1,0.2,1.4,0.5c0.3,0.4,0.5,0.8,0.5,1.3c0,0.5-0.2,1-0.5,1.3c-0.3,0.3-0.8,0.5-1.4,0.5
		c-0.6,0-1.1-0.2-1.4-0.5c-0.3-0.3-0.5-0.8-0.5-1.3s0.2-1,0.5-1.3C229.8,433.3,230.3,433.2,230.9,433.2z M230.9,444.8
		c0.6,0,1.1,0.2,1.4,0.5c0.3,0.4,0.5,0.8,0.5,1.3c0,0.5-0.2,1-0.5,1.3c-0.3,0.3-0.8,0.5-1.4,0.5c-0.6,0-1.1-0.2-1.4-0.5
		c-0.3-0.3-0.5-0.8-0.5-1.3s0.2-1,0.5-1.3C229.8,444.9,230.3,444.8,230.9,444.8z"/>
	<path class="st2" d="M249,427.9h-2.3v22.2h2.3v2.6h-5.6v-27.4h5.6V427.9z"/>
</g>
<g class="st1">
	<path class="st2" d="M144.7,461.1l-0.5,5.3h-1.9v-7.2h2.4V461.1z M148.9,461.1l-0.5,5.3h-1.9v-7.2h2.4V461.1z"/>
	<path class="st2" d="M152.7,482h-2.6l7.8-21.6h2.6L152.7,482z"/>
	<path class="st2" d="M170.6,468.5c-0.4-0.1-0.9-0.1-1.4-0.1c-1.5,0-2.5,0.6-3.1,1.8v10.1h-3.3v-14.8h3.2l0.1,1.7
		c0.8-1.3,1.9-1.9,3.3-1.9c0.5,0,0.9,0.1,1.2,0.2L170.6,468.5z"/>
</g>
<g class="st1">
	<path class="st2" d="M179.2,480.5c-2.1,0-3.8-0.7-5.1-2c-1.3-1.3-2-3.1-2-5.3v-0.4c0-1.5,0.3-2.8,0.9-4c0.6-1.2,1.4-2.1,2.4-2.7
		c1-0.6,2.2-1,3.4-1c2,0,3.6,0.6,4.7,1.9c1.1,1.3,1.6,3.1,1.6,5.5v1.3h-9.7c0.1,1.2,0.5,2.2,1.2,2.9c0.7,0.7,1.6,1.1,2.7,1.1
		c1.5,0,2.8-0.6,3.7-1.8l1.8,1.7c-0.6,0.9-1.4,1.6-2.4,2.1C181.5,480.3,180.4,480.5,179.2,480.5z M178.8,467.9c-0.9,0-1.6,0.3-2.2,1
		s-0.9,1.5-1.1,2.7h6.3v-0.2c-0.1-1.1-0.4-2-0.9-2.5S179.7,467.9,178.8,467.9z"/>
</g>
<g class="st1">
	<path class="st2" d="M192.7,476.1l3.1-10.6h3.4l-5.1,14.8h-2.9l-5.2-14.8h3.4L192.7,476.1z"/>
	<path class="st2" d="M201.4,461.6c0-0.5,0.2-0.9,0.5-1.3c0.3-0.3,0.8-0.5,1.4-0.5s1.1,0.2,1.4,0.5s0.5,0.8,0.5,1.3
		c0,0.5-0.2,0.9-0.5,1.3s-0.8,0.5-1.4,0.5s-1.1-0.2-1.4-0.5C201.6,462.6,201.4,462.1,201.4,461.6z M204.9,480.3h-3.3v-14.8h3.3
		V480.3z"/>
	<path class="st2" d="M215,480.5c-2.1,0-3.8-0.7-5.1-2c-1.3-1.3-2-3.1-2-5.3v-0.4c0-1.5,0.3-2.8,0.9-4c0.6-1.2,1.4-2.1,2.4-2.7
		c1-0.6,2.2-1,3.4-1c2,0,3.6,0.6,4.7,1.9c1.1,1.3,1.6,3.1,1.6,5.5v1.3h-9.7c0.1,1.2,0.5,2.2,1.2,2.9c0.7,0.7,1.6,1.1,2.7,1.1
		c1.5,0,2.8-0.6,3.7-1.8l1.8,1.7c-0.6,0.9-1.4,1.6-2.4,2.1C217.4,480.3,216.3,480.5,215,480.5z M214.7,467.9c-0.9,0-1.6,0.3-2.2,1
		s-0.9,1.5-1.1,2.7h6.3v-0.2c-0.1-1.1-0.4-2-0.9-2.5S215.6,467.9,214.7,467.9z"/>
	<path class="st2" d="M236.6,475.7l2.4-10.2h3.2l-4,14.8h-2.7l-3.2-10.2l-3.1,10.2h-2.7l-4-14.8h3.2l2.4,10.1l3-10.1h2.5
		L236.6,475.7z"/>
	<path class="st2" d="M252.7,476.3c0-0.6-0.2-1-0.7-1.4c-0.5-0.3-1.3-0.6-2.4-0.8c-1.1-0.2-2.1-0.5-2.8-0.9c-1.7-0.8-2.5-2-2.5-3.5
		c0-1.3,0.5-2.3,1.6-3.2c1.1-0.9,2.4-1.3,4.1-1.3c1.8,0,3.2,0.4,4.3,1.3c1.1,0.9,1.6,2,1.6,3.4h-3.3c0-0.6-0.2-1.2-0.7-1.6
		c-0.5-0.4-1.1-0.6-1.9-0.6c-0.7,0-1.3,0.2-1.8,0.5c-0.5,0.3-0.7,0.8-0.7,1.4c0,0.5,0.2,0.9,0.6,1.2c0.4,0.3,1.3,0.6,2.6,0.9
		c1.3,0.3,2.3,0.6,3.1,1c0.7,0.4,1.3,0.9,1.7,1.4c0.4,0.6,0.5,1.2,0.5,2c0,1.3-0.6,2.4-1.7,3.2c-1.1,0.8-2.5,1.2-4.3,1.2
		c-1.2,0-2.3-0.2-3.2-0.7c-0.9-0.4-1.7-1-2.2-1.8c-0.5-0.8-0.8-1.6-0.8-2.5h3.2c0,0.8,0.3,1.4,0.9,1.8s1.3,0.6,2.2,0.6
		c0.9,0,1.5-0.2,2-0.5C252.4,477.2,252.7,476.8,252.7,476.3z"/>
	<path class="st2" d="M259.8,482h-2.6l7.8-21.6h2.6L259.8,482z"/>
	<path class="st2" d="M278.7,480.3h-3.3v-16l-4.9,1.7v-2.8l7.8-2.9h0.4V480.3z"/>
	<path class="st2" d="M287.9,461.1l-0.5,5.3h-1.9v-7.2h2.4V461.1z M292,461.1l-0.5,5.3h-1.9v-7.2h2.4V461.1z"/>
	<path class="st2" d="M295.4,484.8l-1.8-1.1c0.5-0.8,0.9-1.6,1.1-2.2c0.2-0.6,0.3-1.2,0.3-1.9v-2.6h3l0,2.4c0,1-0.3,1.9-0.7,2.9
		S296.1,484.1,295.4,484.8z"/>
</g>
<g class="st1">
	<path class="st2" d="M144.7,493.1l-0.5,5.3h-1.9v-7.2h2.4V493.1z M148.9,493.1l-0.5,5.3h-1.9v-7.2h2.4V493.1z"/>
	<path class="st2" d="M152.7,514h-2.6l7.8-21.6h2.6L152.7,514z"/>
	<path class="st2" d="M170.6,500.5c-0.4-0.1-0.9-0.1-1.4-0.1c-1.5,0-2.5,0.6-3.1,1.8v10.1h-3.3v-14.8h3.2l0.1,1.7
		c0.8-1.3,1.9-1.9,3.3-1.9c0.5,0,0.9,0.1,1.2,0.2L170.6,500.5z"/>
</g>
<g class="st1">
	<path class="st2" d="M179.2,512.5c-2.1,0-3.8-0.7-5.1-2c-1.3-1.3-2-3.1-2-5.3v-0.4c0-1.5,0.3-2.8,0.9-4c0.6-1.2,1.4-2.1,2.4-2.7
		c1-0.6,2.2-1,3.4-1c2,0,3.6,0.6,4.7,1.9c1.1,1.3,1.6,3.1,1.6,5.5v1.3h-9.7c0.1,1.2,0.5,2.2,1.2,2.9c0.7,0.7,1.6,1.1,2.7,1.1
		c1.5,0,2.8-0.6,3.7-1.8l1.8,1.7c-0.6,0.9-1.4,1.6-2.4,2.1C181.5,512.3,180.4,512.5,179.2,512.5z M178.8,499.9c-0.9,0-1.6,0.3-2.2,1
		s-0.9,1.5-1.1,2.7h6.3v-0.2c-0.1-1.1-0.4-2-0.9-2.5S179.7,499.9,178.8,499.9z"/>
</g>
<g class="st1">
	<path class="st2" d="M192.7,508.1l3.1-10.6h3.4l-5.1,14.8h-2.9l-5.2-14.8h3.4L192.7,508.1z"/>
	<path class="st2" d="M201.4,493.6c0-0.5,0.2-0.9,0.5-1.3c0.3-0.3,0.8-0.5,1.4-0.5s1.1,0.2,1.4,0.5s0.5,0.8,0.5,1.3
		c0,0.5-0.2,0.9-0.5,1.3s-0.8,0.5-1.4,0.5s-1.1-0.2-1.4-0.5C201.6,494.6,201.4,494.1,201.4,493.6z M204.9,512.3h-3.3v-14.8h3.3
		V512.3z"/>
	<path class="st2" d="M215,512.5c-2.1,0-3.8-0.7-5.1-2c-1.3-1.3-2-3.1-2-5.3v-0.4c0-1.5,0.3-2.8,0.9-4c0.6-1.2,1.4-2.1,2.4-2.7
		c1-0.6,2.2-1,3.4-1c2,0,3.6,0.6,4.7,1.9c1.1,1.3,1.6,3.1,1.6,5.5v1.3h-9.7c0.1,1.2,0.5,2.2,1.2,2.9c0.7,0.7,1.6,1.1,2.7,1.1
		c1.5,0,2.8-0.6,3.7-1.8l1.8,1.7c-0.6,0.9-1.4,1.6-2.4,2.1C217.4,512.3,216.3,512.5,215,512.5z M214.7,499.9c-0.9,0-1.6,0.3-2.2,1
		s-0.9,1.5-1.1,2.7h6.3v-0.2c-0.1-1.1-0.4-2-0.9-2.5S215.6,499.9,214.7,499.9z"/>
	<path class="st2" d="M236.6,507.7l2.4-10.2h3.2l-4,14.8h-2.7l-3.2-10.2l-3.1,10.2h-2.7l-4-14.8h3.2l2.4,10.1l3-10.1h2.5
		L236.6,507.7z"/>
	<path class="st2" d="M252.7,508.3c0-0.6-0.2-1-0.7-1.4c-0.5-0.3-1.3-0.6-2.4-0.8c-1.1-0.2-2.1-0.5-2.8-0.9c-1.7-0.8-2.5-2-2.5-3.5
		c0-1.3,0.5-2.3,1.6-3.2c1.1-0.9,2.4-1.3,4.1-1.3c1.8,0,3.2,0.4,4.3,1.3c1.1,0.9,1.6,2,1.6,3.4h-3.3c0-0.6-0.2-1.2-0.7-1.6
		c-0.5-0.4-1.1-0.6-1.9-0.6c-0.7,0-1.3,0.2-1.8,0.5c-0.5,0.3-0.7,0.8-0.7,1.4c0,0.5,0.2,0.9,0.6,1.2c0.4,0.3,1.3,0.6,2.6,0.9
		c1.3,0.3,2.3,0.6,3.1,1c0.7,0.4,1.3,0.9,1.7,1.4c0.4,0.6,0.5,1.2,0.5,2c0,1.3-0.6,2.4-1.7,3.2c-1.1,0.8-2.5,1.2-4.3,1.2
		c-1.2,0-2.3-0.2-3.2-0.7c-0.9-0.4-1.7-1-2.2-1.8c-0.5-0.8-0.8-1.6-0.8-2.5h3.2c0,0.8,0.3,1.4,0.9,1.8s1.3,0.6,2.2,0.6
		c0.9,0,1.5-0.2,2-0.5C252.4,509.2,252.7,508.8,252.7,508.3z"/>
	<path class="st2" d="M259.8,514h-2.6l7.8-21.6h2.6L259.8,514z"/>
	<path class="st2" d="M283.1,512.3h-13.4V510l6.6-7.2c1-1.1,1.6-2,2-2.7c0.4-0.7,0.6-1.4,0.6-2.2c0-0.9-0.3-1.7-0.8-2.3
		s-1.3-0.9-2.2-0.9c-1.1,0-1.9,0.3-2.5,1c-0.6,0.7-0.9,1.6-0.9,2.7h-3.3c0-1.2,0.3-2.3,0.8-3.3c0.6-1,1.3-1.7,2.4-2.3
		s2.2-0.8,3.5-0.8c1.9,0,3.5,0.5,4.6,1.5c1.1,1,1.7,2.3,1.7,4c0,1-0.3,2-0.8,3.1s-1.5,2.3-2.8,3.7l-4.9,5.2h9.2V512.3z"/>
	<path class="st2" d="M287.9,493.1l-0.5,5.3h-1.9v-7.2h2.4V493.1z M292,493.1l-0.5,5.3h-1.9v-7.2h2.4V493.1z"/>
</g>
<g class="st1">
	<path class="st2" d="M113.3,521.3h5.6v27.4h-5.6v-2.6h2.3v-22.2h-2.3V521.3z"/>
</g>
<g class="st1">
	<path class="st2" d="M85.6,579.3c1.6-0.5,2.4-1.9,2.5-4.3v-2.8c0-2.1,0.8-3.5,2.5-4.3c-1.7-0.8-2.5-2.2-2.5-4.4v-2.8
		c0-2.3-0.9-3.7-2.5-4.3l0.7-1.9c1.7,0.5,2.9,1.2,3.7,2.3c0.8,1,1.2,2.4,1.2,4.1v2.7c0,2.1,0.9,3.1,2.7,3.1v2.4
		c-1.8,0-2.7,1-2.7,3.1v2.7c0,1.7-0.4,3.1-1.2,4.1c-0.8,1-2,1.8-3.7,2.3L85.6,579.3z"/>
</g>
<rect x="61.6" y="270.1" class="st3" width="289.1" height="45.7"/>
<g class="st1">
	<path class="st4" d="M132.5,306.7h-3.7l10.9-25.4h3.7L132.5,306.7z"/>
	<path class="st4" d="M147,303.3v-20.4h6.6c2.3,0,4.1,0.4,5.2,1.2c1.2,0.8,1.7,2,1.7,3.7c0,0.5-0.1,1-0.2,1.5
		c-0.1,0.5-0.3,0.9-0.6,1.3s-0.6,0.8-0.9,1.1s-0.8,0.6-1.3,0.7c0.5,0.1,1,0.2,1.5,0.5c0.5,0.2,0.9,0.6,1.2,1
		c0.3,0.4,0.6,0.9,0.8,1.4s0.3,1.1,0.3,1.8c0,2.1-0.7,3.6-2.1,4.7c-1.4,1-3.4,1.6-6,1.6H147z M156.5,288.5c0-0.4-0.1-0.7-0.2-1
		s-0.3-0.6-0.6-0.8c-0.3-0.2-0.6-0.4-1.1-0.5c-0.4-0.1-1-0.2-1.6-0.2h-2.3v5.4h2.3c0.6,0,1.2-0.1,1.6-0.2c0.4-0.2,0.8-0.4,1.1-0.6
		c0.3-0.3,0.5-0.6,0.6-0.9C156.5,289.2,156.5,288.9,156.5,288.5z M153.5,300.2c0.6,0,1.2-0.1,1.6-0.2c0.5-0.2,0.9-0.4,1.2-0.6
		c0.3-0.3,0.5-0.6,0.7-1c0.2-0.4,0.2-0.8,0.2-1.2c0-0.9-0.3-1.6-1-2.1c-0.7-0.5-1.7-0.8-3-0.8h-2.4v5.9H153.5z"/>
	<path class="st4" d="M179.2,293c0,1.9-0.2,3.5-0.6,4.8c-0.4,1.3-1,2.4-1.8,3.3c-0.8,0.9-1.6,1.5-2.7,1.9s-2.1,0.6-3.3,0.6
		c-2.7,0-4.7-0.9-6.1-2.7c-1.4-1.8-2-4.4-2-7.8c0-1.9,0.2-3.5,0.6-4.8c0.4-1.3,1-2.4,1.8-3.3c0.8-0.9,1.6-1.5,2.7-1.9
		c1-0.4,2.1-0.6,3.3-0.6c2.7,0,4.7,0.9,6.1,2.7C178.6,287,179.2,289.6,179.2,293z M175.2,293.2c0-2.4-0.3-4.2-1-5.4
		c-0.6-1.2-1.7-1.8-3.2-1.8c-0.7,0-1.4,0.2-1.9,0.5c-0.5,0.3-1,0.8-1.3,1.4c-0.3,0.6-0.6,1.3-0.7,2.2c-0.2,0.9-0.2,1.9-0.2,3
		c0,2.4,0.3,4.2,1,5.4c0.7,1.2,1.7,1.8,3.2,1.8c0.7,0,1.4-0.2,1.9-0.5c0.5-0.3,1-0.8,1.3-1.4c0.3-0.6,0.6-1.3,0.7-2.2
		C175.1,295.3,175.2,294.3,175.2,293.2z"/>
	<path class="st4" d="M196.5,293c0,1.9-0.2,3.5-0.6,4.8c-0.4,1.3-1,2.4-1.8,3.3c-0.8,0.9-1.6,1.5-2.7,1.9s-2.1,0.6-3.3,0.6
		c-2.7,0-4.7-0.9-6.1-2.7c-1.4-1.8-2-4.4-2-7.8c0-1.9,0.2-3.5,0.6-4.8c0.4-1.3,1-2.4,1.8-3.3c0.8-0.9,1.6-1.5,2.7-1.9
		c1-0.4,2.1-0.6,3.3-0.6c2.7,0,4.7,0.9,6.1,2.7C195.8,287,196.5,289.6,196.5,293z M192.5,293.2c0-2.4-0.3-4.2-1-5.4
		c-0.6-1.2-1.7-1.8-3.2-1.8c-0.7,0-1.4,0.2-1.9,0.5c-0.5,0.3-1,0.8-1.3,1.4c-0.3,0.6-0.6,1.3-0.7,2.2c-0.2,0.9-0.2,1.9-0.2,3
		c0,2.4,0.3,4.2,1,5.4c0.7,1.2,1.7,1.8,3.2,1.8c0.7,0,1.4-0.2,1.9-0.5c0.5-0.3,1-0.8,1.3-1.4c0.3-0.6,0.6-1.3,0.7-2.2
		C192.4,295.3,192.5,294.3,192.5,293.2z"/>
	<path class="st4" d="M208.8,303.3l-6.1-9.9v9.9h-3.9v-20.4h3.9v9.3l6.1-9.3h4.6l-6.9,9.7l7.3,10.7H208.8z"/>
	<path class="st4" d="M230,297.1c0,1.1-0.2,2.1-0.6,2.9c-0.4,0.8-1,1.5-1.7,2c-0.7,0.5-1.6,0.9-2.6,1.2c-1,0.3-2.1,0.4-3.3,0.4
		c-1.1,0-2.1-0.1-3.1-0.2s-2-0.3-3-0.6v-3.8c0.5,0.2,1,0.3,1.5,0.5c0.5,0.1,1,0.3,1.6,0.4c0.5,0.1,1,0.2,1.6,0.3
		c0.5,0.1,1,0.1,1.5,0.1c0.7,0,1.3-0.1,1.9-0.2c0.5-0.1,0.9-0.3,1.2-0.5c0.3-0.2,0.6-0.5,0.7-0.8c0.1-0.3,0.2-0.6,0.2-1
		c0-0.5-0.1-0.9-0.4-1.3c-0.3-0.3-0.7-0.6-1.1-0.9c-0.5-0.3-1-0.5-1.6-0.7c-0.6-0.2-1.2-0.4-1.8-0.7c-0.6-0.2-1.2-0.5-1.8-0.8
		c-0.6-0.3-1.1-0.7-1.6-1.1c-0.5-0.4-0.8-1-1.1-1.6c-0.3-0.6-0.4-1.4-0.4-2.2c0-0.8,0.1-1.6,0.4-2.3c0.3-0.7,0.8-1.3,1.4-1.9
		c0.6-0.5,1.4-1,2.4-1.3c1-0.3,2.2-0.5,3.5-0.5c0.4,0,0.8,0,1.3,0.1c0.4,0,0.9,0.1,1.3,0.1c0.4,0.1,0.8,0.1,1.2,0.2
		c0.4,0.1,0.8,0.2,1.1,0.2v3.5c-0.3-0.1-0.7-0.2-1.1-0.3c-0.4-0.1-0.8-0.2-1.2-0.3s-0.8-0.1-1.3-0.2c-0.4,0-0.8-0.1-1.2-0.1
		c-0.7,0-1.2,0.1-1.7,0.2s-0.9,0.3-1.2,0.5c-0.3,0.2-0.5,0.4-0.7,0.7c-0.1,0.3-0.2,0.6-0.2,0.9c0,0.4,0.1,0.8,0.4,1.1
		c0.3,0.3,0.7,0.6,1.1,0.8c0.5,0.2,1,0.5,1.6,0.7c0.6,0.2,1.2,0.4,1.8,0.7c0.6,0.2,1.2,0.5,1.8,0.8c0.6,0.3,1.1,0.7,1.6,1.1
		c0.5,0.4,0.9,1,1.1,1.6C229.8,295.6,230,296.3,230,297.1z"/>
	<path class="st4" d="M236.2,306.7h-3.7l10.9-25.4h3.7L236.2,306.7z"/>
	<path class="st4" d="M251,303.3v-3.4h5.2v-13.1l-4.5,2.5l-1.2-3.1l6.5-3.4h3.2v17.2h4.5v3.4H251z"/>
</g>
<rect x="63.6" y="788.6" class="st0" width="385.5" height="73.1"/>
<rect x="63.5" y="801.4" class="st5" width="287.3" height="45.7"/>
<g class="st1">
	<path class="st4" d="M134.3,838h-3.7l10.9-25.4h3.7L134.3,838z"/>
	<path class="st4" d="M159.1,834.6l-2.9-6.6c-0.3-0.6-0.6-1.1-1.1-1.4c-0.5-0.3-1.1-0.5-1.7-0.5h-0.7v8.5h-3.8v-20.4h6
		c1.1,0,2.1,0.1,3.1,0.3c0.9,0.2,1.7,0.5,2.3,1c0.6,0.4,1.1,1,1.5,1.8c0.3,0.7,0.5,1.6,0.5,2.6c0,0.8-0.1,1.4-0.3,2
		c-0.2,0.6-0.5,1.1-0.9,1.5c-0.4,0.4-0.9,0.8-1.4,1c-0.5,0.3-1.1,0.4-1.8,0.5c0.5,0.1,1,0.4,1.4,0.9c0.4,0.5,0.8,1.1,1.2,2l3.3,6.8
		H159.1z M158.1,820.2c0-1-0.3-1.7-1-2.2c-0.6-0.4-1.6-0.7-2.9-0.7h-1.7v5.8h1.6c0.6,0,1.1-0.1,1.6-0.2s0.9-0.3,1.2-0.6
		s0.6-0.6,0.8-0.9C158,821.1,158.1,820.7,158.1,820.2z"/>
	<path class="st4" d="M166.9,834.6v-20.4h12.3v3.2h-8.4v5.1h8v3.2h-8v5.7h8.4v3.2H166.9z"/>
	<path class="st4" d="M192.6,834.6h-5.1l-6.2-20.4h4.4l3.5,12.3l1.1,4l1.2-4.3l3.4-12.1h4.1L192.6,834.6z"/>
	<path class="st4" d="M200.9,817.3v-3.1h12.9v3.1h-4.5v14.1h4.5v3.2h-12.9v-3.2h4.5v-14.1H200.9z"/>
	<path class="st4" d="M218.7,834.6v-20.4H231v3.2h-8.4v5.1h8v3.2h-8v5.7h8.4v3.2H218.7z"/>
	<path class="st4" d="M249.1,834.6h-4.5l-2-6.3l-0.7-2.6l-0.7,2.6l-2,6.2h-4.3l-1.1-20.4h3.4l0.5,13.1l0.1,3.6l0.9-3.2l2.2-7.3h2.4
		l2.4,7.7l0.8,2.7l0.1-3.2l0.5-13.5h3.3L249.1,834.6z"/>
	<path class="st4" d="M266.3,828.4c0,1.1-0.2,2.1-0.6,2.9c-0.4,0.8-1,1.5-1.7,2c-0.7,0.5-1.6,0.9-2.6,1.2c-1,0.3-2.1,0.4-3.3,0.4
		c-1.1,0-2.1-0.1-3.1-0.2s-2-0.3-3-0.6v-3.8c0.5,0.2,1,0.3,1.5,0.5c0.5,0.1,1,0.3,1.6,0.4c0.5,0.1,1,0.2,1.6,0.3
		c0.5,0.1,1,0.1,1.5,0.1c0.7,0,1.3-0.1,1.9-0.2c0.5-0.1,0.9-0.3,1.2-0.5c0.3-0.2,0.6-0.5,0.7-0.8c0.1-0.3,0.2-0.6,0.2-1
		c0-0.5-0.1-0.9-0.4-1.3c-0.3-0.3-0.7-0.6-1.1-0.9c-0.5-0.3-1-0.5-1.6-0.7c-0.6-0.2-1.2-0.4-1.8-0.7c-0.6-0.2-1.2-0.5-1.8-0.8
		c-0.6-0.3-1.1-0.7-1.6-1.1c-0.5-0.4-0.8-1-1.1-1.6c-0.3-0.6-0.4-1.4-0.4-2.2c0-0.8,0.1-1.6,0.4-2.3c0.3-0.7,0.8-1.3,1.4-1.9
		c0.6-0.5,1.4-1,2.4-1.3c1-0.3,2.2-0.5,3.5-0.5c0.4,0,0.8,0,1.3,0.1c0.4,0,0.9,0.1,1.3,0.1c0.4,0.1,0.8,0.1,1.2,0.2
		c0.4,0.1,0.8,0.2,1.1,0.2v3.5c-0.3-0.1-0.7-0.2-1.1-0.3c-0.4-0.1-0.8-0.2-1.2-0.3s-0.8-0.1-1.3-0.2c-0.4,0-0.8-0.1-1.2-0.1
		c-0.7,0-1.2,0.1-1.7,0.2s-0.9,0.3-1.2,0.5c-0.3,0.2-0.5,0.4-0.7,0.7c-0.1,0.3-0.2,0.6-0.2,0.9c0,0.4,0.1,0.8,0.4,1.1
		c0.3,0.3,0.7,0.6,1.1,0.8c0.5,0.2,1,0.5,1.6,0.7c0.6,0.2,1.2,0.4,1.8,0.7c0.6,0.2,1.2,0.5,1.8,0.8c0.6,0.3,1.1,0.7,1.6,1.1
		c0.5,0.4,0.9,1,1.1,1.6C266.2,826.9,266.3,827.6,266.3,828.4z"/>
	<path class="st4" d="M272.5,838h-3.7l10.9-25.4h3.7L272.5,838z"/>
	<path class="st4" d="M287,834.6v-2.8l4.8-4.8c0.9-0.9,1.6-1.7,2.2-2.3s1-1.2,1.3-1.8s0.5-1,0.6-1.4s0.1-0.9,0.1-1.4
		c0-0.4-0.1-0.8-0.2-1.1c-0.1-0.3-0.3-0.7-0.5-0.9c-0.2-0.3-0.5-0.5-0.9-0.6c-0.4-0.2-0.8-0.2-1.2-0.2c-0.8,0-1.5,0.2-2.2,0.5
		c-0.7,0.3-1.3,0.8-2,1.4l-2-2.6c0.9-0.8,1.9-1.5,3-2c1.1-0.5,2.3-0.7,3.6-0.7c1,0,1.9,0.1,2.7,0.4c0.8,0.3,1.5,0.6,2.1,1.1
		s1,1.1,1.3,1.9s0.5,1.6,0.5,2.6c0,0.8-0.1,1.6-0.3,2.3s-0.5,1.4-1,2.1c-0.4,0.7-0.9,1.3-1.5,2c-0.6,0.7-1.3,1.4-2.1,2.1l-3,2.8h8.6
		v3.5H287z"/>
</g>
<rect x="63.6" y="607.8" class="st0" width="385.5" height="73.1"/>
<rect x="61.6" y="620.4" class="st6" width="289.1" height="45.7"/>
<g class="st1">
	<path class="st4" d="M132.8,657h-3.7l10.9-25.4h3.7L132.8,657z"/>
	<path class="st4" d="M158.5,653.6l-1.1-4h-7.1l-1.2,4h-3.8l6-20.4h5.4l6,20.4H158.5z M153.9,636.9l-2.7,9.5h5.3L153.9,636.9z"/>
	<path class="st4" d="M178.8,646.1c0,1.3-0.2,2.4-0.5,3.4c-0.3,1-0.8,1.8-1.5,2.5c-0.7,0.7-1.4,1.2-2.4,1.5s-2,0.5-3.2,0.5
		c-1.3,0-2.4-0.2-3.4-0.5s-1.7-0.8-2.3-1.4c-0.6-0.6-1-1.4-1.3-2.3c-0.3-0.9-0.4-1.9-0.4-3v-13.5h3.8v13.3c0,0.7,0.1,1.3,0.2,1.8
		c0.1,0.5,0.3,1,0.6,1.4c0.3,0.4,0.7,0.6,1.1,0.8c0.4,0.2,1,0.3,1.7,0.3c0.6,0,1.2-0.1,1.6-0.2c0.4-0.2,0.8-0.4,1.1-0.8
		c0.3-0.4,0.5-0.8,0.7-1.4c0.1-0.6,0.2-1.2,0.2-2v-13.2h3.8V646.1z"/>
	<path class="st4" d="M190.6,636.4v17.2h-3.9v-17.2H181v-3.2h15.1v3.2H190.6z"/>
	<path class="st4" d="M209.3,653.6v-8.9h-6.9v8.9h-3.8v-20.4h3.8v8.2h6.9v-8.2h3.8v20.4H209.3z"/>
	<path class="st4" d="M231.4,643.3c0,1.9-0.2,3.5-0.6,4.8c-0.4,1.3-1,2.4-1.8,3.3c-0.8,0.9-1.6,1.5-2.7,1.9s-2.1,0.6-3.3,0.6
		c-2.7,0-4.7-0.9-6.1-2.7c-1.4-1.8-2-4.4-2-7.8c0-1.9,0.2-3.5,0.6-4.8c0.4-1.3,1-2.4,1.8-3.3c0.8-0.9,1.6-1.5,2.7-1.9
		c1-0.4,2.1-0.6,3.3-0.6c2.7,0,4.7,0.9,6.1,2.7C230.7,637.3,231.4,639.9,231.4,643.3z M227.3,643.5c0-2.4-0.3-4.2-1-5.4
		c-0.6-1.2-1.7-1.8-3.2-1.8c-0.7,0-1.4,0.2-1.9,0.5c-0.5,0.3-1,0.8-1.3,1.4c-0.3,0.6-0.6,1.3-0.7,2.2c-0.2,0.9-0.2,1.9-0.2,3
		c0,2.4,0.3,4.2,1,5.4c0.7,1.2,1.7,1.8,3.2,1.8c0.7,0,1.4-0.2,1.9-0.5c0.5-0.3,1-0.8,1.3-1.4c0.3-0.6,0.6-1.3,0.7-2.2
		C227.2,645.6,227.3,644.6,227.3,643.5z"/>
	<path class="st4" d="M243.9,653.6l-2.9-6.6c-0.3-0.6-0.6-1.1-1.1-1.4c-0.5-0.3-1.1-0.5-1.7-0.5h-0.7v8.5h-3.8v-20.4h6
		c1.1,0,2.1,0.1,3.1,0.3c0.9,0.2,1.7,0.5,2.3,1c0.6,0.4,1.1,1,1.5,1.8c0.3,0.7,0.5,1.6,0.5,2.6c0,0.8-0.1,1.4-0.3,2
		c-0.2,0.6-0.5,1.1-0.9,1.5c-0.4,0.4-0.9,0.8-1.4,1c-0.5,0.3-1.1,0.4-1.8,0.5c0.5,0.1,1,0.4,1.4,0.9c0.4,0.5,0.8,1.1,1.2,2l3.3,6.8
		H243.9z M243,639.2c0-1-0.3-1.7-1-2.2c-0.6-0.4-1.6-0.7-2.9-0.7h-1.7v5.8h1.6c0.6,0,1.1-0.1,1.6-0.2s0.9-0.3,1.2-0.6
		s0.6-0.6,0.8-0.9C242.9,640.1,243,639.7,243,639.2z"/>
	<path class="st4" d="M264.8,647.4c0,1.1-0.2,2.1-0.6,2.9c-0.4,0.8-1,1.5-1.7,2c-0.7,0.5-1.6,0.9-2.6,1.2c-1,0.3-2.1,0.4-3.3,0.4
		c-1.1,0-2.1-0.1-3.1-0.2s-2-0.3-3-0.6v-3.8c0.5,0.2,1,0.3,1.5,0.5c0.5,0.1,1,0.3,1.6,0.4c0.5,0.1,1,0.2,1.6,0.3
		c0.5,0.1,1,0.1,1.5,0.1c0.7,0,1.3-0.1,1.9-0.2c0.5-0.1,0.9-0.3,1.2-0.5c0.3-0.2,0.6-0.5,0.7-0.8c0.1-0.3,0.2-0.6,0.2-1
		c0-0.5-0.1-0.9-0.4-1.3c-0.3-0.3-0.7-0.6-1.1-0.9c-0.5-0.3-1-0.5-1.6-0.7c-0.6-0.2-1.2-0.4-1.8-0.7c-0.6-0.2-1.2-0.5-1.8-0.8
		c-0.6-0.3-1.1-0.7-1.6-1.1c-0.5-0.4-0.8-1-1.1-1.6c-0.3-0.6-0.4-1.4-0.4-2.2c0-0.8,0.1-1.6,0.4-2.3c0.3-0.7,0.8-1.3,1.4-1.9
		c0.6-0.5,1.4-1,2.4-1.3c1-0.3,2.2-0.5,3.5-0.5c0.4,0,0.8,0,1.3,0.1c0.4,0,0.9,0.1,1.3,0.1c0.4,0.1,0.8,0.1,1.2,0.2
		c0.4,0.1,0.8,0.2,1.1,0.2v3.5c-0.3-0.1-0.7-0.2-1.1-0.3c-0.4-0.1-0.8-0.2-1.2-0.3s-0.8-0.1-1.3-0.2c-0.4,0-0.8-0.1-1.2-0.1
		c-0.7,0-1.2,0.1-1.7,0.2s-0.9,0.3-1.2,0.5c-0.3,0.2-0.5,0.4-0.7,0.7c-0.1,0.3-0.2,0.6-0.2,0.9c0,0.4,0.1,0.8,0.4,1.1
		c0.3,0.3,0.7,0.6,1.1,0.8c0.5,0.2,1,0.5,1.6,0.7c0.6,0.2,1.2,0.4,1.8,0.7c0.6,0.2,1.2,0.5,1.8,0.8c0.6,0.3,1.1,0.7,1.6,1.1
		c0.5,0.4,0.9,1,1.1,1.6C264.7,645.9,264.8,646.6,264.8,647.4z"/>
	<path class="st4" d="M271,657h-3.7l10.9-25.4h3.7L271,657z"/>
	<path class="st4" d="M285.8,653.6v-3.4h5.2v-13.1l-4.5,2.5l-1.2-3.1l6.5-3.4h3.2v17.2h4.5v3.4H285.8z"/>
</g>
<rect x="63.6" y="697.5" class="st0" width="385.5" height="73.1"/>
<rect x="64.2" y="709.2" class="st7" width="286.6" height="45.7"/>
<g class="st1">
	<path class="st4" d="M134.1,745.8h-3.7l10.9-25.4h3.7L134.1,745.8z"/>
	<path class="st4" d="M158.8,742.4l-2.9-6.6c-0.3-0.6-0.6-1.1-1.1-1.4c-0.5-0.3-1.1-0.5-1.7-0.5h-0.7v8.5h-3.8V722h6
		c1.1,0,2.1,0.1,3.1,0.3c0.9,0.2,1.7,0.5,2.3,1c0.6,0.4,1.1,1,1.5,1.8c0.3,0.7,0.5,1.6,0.5,2.6c0,0.8-0.1,1.4-0.3,2
		c-0.2,0.6-0.5,1.1-0.9,1.5c-0.4,0.4-0.9,0.8-1.4,1c-0.5,0.3-1.1,0.4-1.8,0.5c0.5,0.1,1,0.4,1.4,0.9c0.4,0.5,0.8,1.1,1.2,2l3.3,6.8
		H158.8z M157.9,728c0-1-0.3-1.7-1-2.2c-0.6-0.4-1.6-0.7-2.9-0.7h-1.7v5.8h1.6c0.6,0,1.1-0.1,1.6-0.2s0.9-0.3,1.2-0.6
		s0.6-0.6,0.8-0.9C157.8,728.9,157.9,728.5,157.9,728z"/>
	<path class="st4" d="M166.7,742.4V722H179v3.2h-8.4v5.1h8v3.2h-8v5.7h8.4v3.2H166.7z"/>
	<path class="st4" d="M192.4,742.4h-5.1l-6.2-20.4h4.4l3.5,12.3l1.1,4l1.2-4.3l3.4-12.1h4.1L192.4,742.4z"/>
	<path class="st4" d="M200.7,725.1V722h12.9v3.1h-4.5v14.1h4.5v3.2h-12.9v-3.2h4.5v-14.1H200.7z"/>
	<path class="st4" d="M218.5,742.4V722h12.3v3.2h-8.4v5.1h8v3.2h-8v5.7h8.4v3.2H218.5z"/>
	<path class="st4" d="M248.8,742.4h-4.5l-2-6.3l-0.7-2.6l-0.7,2.6l-2,6.2h-4.3l-1.1-20.4h3.4l0.5,13.1l0.1,3.6l0.9-3.2l2.2-7.3h2.4
		l2.4,7.7l0.8,2.7l0.1-3.2l0.5-13.5h3.3L248.8,742.4z"/>
	<path class="st4" d="M266.1,736.2c0,1.1-0.2,2.1-0.6,2.9c-0.4,0.8-1,1.5-1.7,2c-0.7,0.5-1.6,0.9-2.6,1.2c-1,0.3-2.1,0.4-3.3,0.4
		c-1.1,0-2.1-0.1-3.1-0.2s-2-0.3-3-0.6v-3.8c0.5,0.2,1,0.3,1.5,0.5c0.5,0.1,1,0.3,1.6,0.4c0.5,0.1,1,0.2,1.6,0.3
		c0.5,0.1,1,0.1,1.5,0.1c0.7,0,1.3-0.1,1.9-0.2c0.5-0.1,0.9-0.3,1.2-0.5c0.3-0.2,0.6-0.5,0.7-0.8c0.1-0.3,0.2-0.6,0.2-1
		c0-0.5-0.1-0.9-0.4-1.3c-0.3-0.3-0.7-0.6-1.1-0.9c-0.5-0.3-1-0.5-1.6-0.7c-0.6-0.2-1.2-0.4-1.8-0.7c-0.6-0.2-1.2-0.5-1.8-0.8
		c-0.6-0.3-1.1-0.7-1.6-1.1c-0.5-0.4-0.8-1-1.1-1.6c-0.3-0.6-0.4-1.4-0.4-2.2c0-0.8,0.1-1.6,0.4-2.3c0.3-0.7,0.8-1.3,1.4-1.9
		c0.6-0.5,1.4-1,2.4-1.3c1-0.3,2.2-0.5,3.5-0.5c0.4,0,0.8,0,1.3,0.1c0.4,0,0.9,0.1,1.3,0.1c0.4,0.1,0.8,0.1,1.2,0.2
		c0.4,0.1,0.8,0.2,1.1,0.2v3.5c-0.3-0.1-0.7-0.2-1.1-0.3c-0.4-0.1-0.8-0.2-1.2-0.3s-0.8-0.1-1.3-0.2c-0.4,0-0.8-0.1-1.2-0.1
		c-0.7,0-1.2,0.1-1.7,0.2s-0.9,0.3-1.2,0.5c-0.3,0.2-0.5,0.4-0.7,0.7c-0.1,0.3-0.2,0.6-0.2,0.9c0,0.4,0.1,0.8,0.4,1.1
		c0.3,0.3,0.7,0.6,1.1,0.8c0.5,0.2,1,0.5,1.6,0.7c0.6,0.2,1.2,0.4,1.8,0.7c0.6,0.2,1.2,0.5,1.8,0.8c0.6,0.3,1.1,0.7,1.6,1.1
		c0.5,0.4,0.9,1,1.1,1.6C266,734.7,266.1,735.4,266.1,736.2z"/>
	<path class="st4" d="M272.3,745.8h-3.7l10.9-25.4h3.7L272.3,745.8z"/>
	<path class="st4" d="M287.1,742.4V739h5.2v-13.1l-4.5,2.5l-1.2-3.1l6.5-3.4h3.2V739h4.5v3.4H287.1z"/>
</g>
<g class="st1">
	<path d="M373.7,658.3c-1.9,0-3.3-0.5-4.2-1.4s-1.4-2.3-1.4-4.3v-3.5c0-0.9-0.2-1.6-0.6-2.1c-0.4-0.5-1.1-0.7-2.1-0.7h-0.9v-2.6h0.9
		c0.5,0,0.9-0.1,1.3-0.2c0.3-0.1,0.6-0.3,0.8-0.5s0.4-0.5,0.5-0.8s0.1-0.8,0.1-1.2v-2.4c0-0.9,0.1-1.8,0.3-2.5
		c0.2-0.7,0.5-1.3,1-1.8c0.5-0.5,1-0.8,1.7-1.1c0.7-0.2,1.6-0.4,2.5-0.4h1.1v2.6H374c-0.4,0-0.8,0.1-1.2,0.2
		c-0.4,0.1-0.7,0.3-0.9,0.5c-0.3,0.2-0.5,0.5-0.6,0.9s-0.2,0.9-0.2,1.4v2.4c0,0.7-0.1,1.3-0.2,1.8c-0.1,0.5-0.3,0.9-0.5,1.2
		c-0.2,0.3-0.5,0.6-0.9,0.8c-0.4,0.2-0.8,0.3-1.3,0.4c1,0.1,1.7,0.5,2.2,1.1c0.5,0.7,0.7,1.7,0.7,3v3.5c0,0.6,0.1,1.1,0.2,1.5
		s0.3,0.7,0.6,0.9c0.3,0.2,0.6,0.4,0.9,0.5c0.4,0.1,0.7,0.2,1.2,0.2h0.9v2.6H373.7z"/>
	<path d="M384.8,647.9c0.4,0,0.7,0.1,1.1,0.2s0.6,0.3,0.9,0.6s0.4,0.5,0.6,0.9s0.2,0.7,0.2,1.1c0,0.4-0.1,0.7-0.2,1
		s-0.3,0.6-0.6,0.8s-0.5,0.4-0.9,0.6s-0.7,0.2-1.1,0.2c-0.4,0-0.7-0.1-1-0.2s-0.6-0.3-0.8-0.6s-0.4-0.5-0.6-0.8s-0.2-0.7-0.2-1
		c0-0.4,0.1-0.7,0.2-1.1s0.3-0.6,0.6-0.9s0.5-0.4,0.8-0.6S384.5,647.9,384.8,647.9z"/>
	<path d="M399.7,647.9c0.4,0,0.7,0.1,1.1,0.2s0.6,0.3,0.9,0.6c0.2,0.2,0.4,0.5,0.6,0.9s0.2,0.7,0.2,1.1c0,0.4-0.1,0.7-0.2,1
		s-0.3,0.6-0.6,0.8c-0.2,0.2-0.5,0.4-0.9,0.6s-0.7,0.2-1.1,0.2c-0.4,0-0.7-0.1-1-0.2c-0.3-0.1-0.6-0.3-0.8-0.6
		c-0.2-0.2-0.4-0.5-0.6-0.8s-0.2-0.7-0.2-1c0-0.4,0.1-0.7,0.2-1.1s0.3-0.6,0.6-0.9c0.2-0.2,0.5-0.4,0.8-0.6
		C399,647.9,399.3,647.9,399.7,647.9z"/>
	<path d="M414.5,647.9c0.4,0,0.7,0.1,1.1,0.2s0.6,0.3,0.9,0.6s0.4,0.5,0.6,0.9s0.2,0.7,0.2,1.1c0,0.4-0.1,0.7-0.2,1
		s-0.3,0.6-0.6,0.8s-0.5,0.4-0.9,0.6s-0.7,0.2-1.1,0.2c-0.4,0-0.7-0.1-1-0.2s-0.6-0.3-0.8-0.6s-0.4-0.5-0.6-0.8s-0.2-0.7-0.2-1
		c0-0.4,0.1-0.7,0.2-1.1s0.3-0.6,0.6-0.9s0.5-0.4,0.8-0.6S414.2,647.9,414.5,647.9z"/>
	<path d="M425.9,633c1.9,0,3.3,0.5,4.2,1.4s1.4,2.3,1.4,4.3v2.3c0,0.9,0.2,1.6,0.6,2.1c0.4,0.5,1.1,0.7,2.1,0.7h0.9v2.6h-0.9
		c-0.5,0-0.9,0.1-1.3,0.2c-0.3,0.1-0.6,0.3-0.8,0.5c-0.2,0.2-0.4,0.5-0.5,0.8s-0.1,0.8-0.1,1.2v3.6c0,0.9-0.1,1.8-0.3,2.5
		c-0.2,0.7-0.5,1.3-1,1.8c-0.5,0.5-1,0.8-1.8,1.1s-1.6,0.4-2.6,0.4h-1.1v-2.6h0.9c0.4,0,0.8,0,1.2-0.2c0.4-0.1,0.7-0.3,0.9-0.5
		c0.3-0.2,0.5-0.6,0.6-0.9s0.2-0.9,0.2-1.4v-3.6c0-0.7,0.1-1.3,0.2-1.8c0.1-0.5,0.3-0.9,0.5-1.2s0.5-0.6,0.9-0.7
		c0.4-0.2,0.8-0.3,1.3-0.4c-1-0.1-1.7-0.5-2.2-1.2c-0.5-0.7-0.7-1.7-0.7-3v-2.3c0-0.6-0.1-1.1-0.2-1.5s-0.3-0.7-0.6-1
		c-0.3-0.2-0.6-0.4-0.9-0.5c-0.4-0.1-0.7-0.2-1.2-0.2h-0.9V633H425.9z"/>
</g>
<g class="st1">
	<path d="M373.7,745.9c-1.9,0-3.3-0.5-4.2-1.4s-1.4-2.3-1.4-4.3v-3.5c0-0.9-0.2-1.6-0.6-2.1c-0.4-0.5-1.1-0.7-2.1-0.7h-0.9v-2.6h0.9
		c0.5,0,0.9-0.1,1.3-0.2c0.3-0.1,0.6-0.3,0.8-0.5s0.4-0.5,0.5-0.8s0.1-0.8,0.1-1.2v-2.4c0-0.9,0.1-1.8,0.3-2.5
		c0.2-0.7,0.5-1.3,1-1.8c0.5-0.5,1-0.8,1.7-1.1c0.7-0.2,1.6-0.4,2.5-0.4h1.1v2.6H374c-0.4,0-0.8,0.1-1.2,0.2
		c-0.4,0.1-0.7,0.3-0.9,0.5c-0.3,0.2-0.5,0.5-0.6,0.9s-0.2,0.9-0.2,1.4v2.4c0,0.7-0.1,1.3-0.2,1.8c-0.1,0.5-0.3,0.9-0.5,1.2
		c-0.2,0.3-0.5,0.6-0.9,0.8c-0.4,0.2-0.8,0.3-1.3,0.4c1,0.1,1.7,0.5,2.2,1.1c0.5,0.7,0.7,1.7,0.7,3v3.5c0,0.6,0.1,1.1,0.2,1.5
		s0.3,0.7,0.6,0.9c0.3,0.2,0.6,0.4,0.9,0.5c0.4,0.1,0.7,0.2,1.2,0.2h0.9v2.6H373.7z"/>
	<path d="M384.8,735.4c0.4,0,0.7,0.1,1.1,0.2s0.6,0.3,0.9,0.6s0.4,0.5,0.6,0.9s0.2,0.7,0.2,1.1c0,0.4-0.1,0.7-0.2,1
		s-0.3,0.6-0.6,0.8s-0.5,0.4-0.9,0.6s-0.7,0.2-1.1,0.2c-0.4,0-0.7-0.1-1-0.2s-0.6-0.3-0.8-0.6s-0.4-0.5-0.6-0.8s-0.2-0.7-0.2-1
		c0-0.4,0.1-0.7,0.2-1.1s0.3-0.6,0.6-0.9s0.5-0.4,0.8-0.6S384.5,735.4,384.8,735.4z"/>
	<path d="M399.7,735.4c0.4,0,0.7,0.1,1.1,0.2s0.6,0.3,0.9,0.6c0.2,0.2,0.4,0.5,0.6,0.9s0.2,0.7,0.2,1.1c0,0.4-0.1,0.7-0.2,1
		s-0.3,0.6-0.6,0.8c-0.2,0.2-0.5,0.4-0.9,0.6s-0.7,0.2-1.1,0.2c-0.4,0-0.7-0.1-1-0.2c-0.3-0.1-0.6-0.3-0.8-0.6
		c-0.2-0.2-0.4-0.5-0.6-0.8s-0.2-0.7-0.2-1c0-0.4,0.1-0.7,0.2-1.1s0.3-0.6,0.6-0.9c0.2-0.2,0.5-0.4,0.8-0.6
		C399,735.5,399.3,735.4,399.7,735.4z"/>
	<path d="M414.5,735.4c0.4,0,0.7,0.1,1.1,0.2s0.6,0.3,0.9,0.6s0.4,0.5,0.6,0.9s0.2,0.7,0.2,1.1c0,0.4-0.1,0.7-0.2,1
		s-0.3,0.6-0.6,0.8s-0.5,0.4-0.9,0.6s-0.7,0.2-1.1,0.2c-0.4,0-0.7-0.1-1-0.2s-0.6-0.3-0.8-0.6s-0.4-0.5-0.6-0.8s-0.2-0.7-0.2-1
		c0-0.4,0.1-0.7,0.2-1.1s0.3-0.6,0.6-0.9s0.5-0.4,0.8-0.6S414.2,735.4,414.5,735.4z"/>
	<path d="M425.9,720.5c1.9,0,3.3,0.5,4.2,1.4s1.4,2.3,1.4,4.3v2.3c0,0.9,0.2,1.6,0.6,2.1c0.4,0.5,1.1,0.7,2.1,0.7h0.9v2.6h-0.9
		c-0.5,0-0.9,0.1-1.3,0.2c-0.3,0.1-0.6,0.3-0.8,0.5c-0.2,0.2-0.4,0.5-0.5,0.8s-0.1,0.8-0.1,1.2v3.6c0,0.9-0.1,1.8-0.3,2.5
		c-0.2,0.7-0.5,1.3-1,1.8c-0.5,0.5-1,0.8-1.8,1.1s-1.6,0.4-2.6,0.4h-1.1v-2.6h0.9c0.4,0,0.8,0,1.2-0.2c0.4-0.1,0.7-0.3,0.9-0.5
		c0.3-0.2,0.5-0.6,0.6-0.9s0.2-0.9,0.2-1.4v-3.6c0-0.7,0.1-1.3,0.2-1.8c0.1-0.5,0.3-0.9,0.5-1.2s0.5-0.6,0.9-0.7
		c0.4-0.2,0.8-0.3,1.3-0.4c-1-0.1-1.7-0.5-2.2-1.2c-0.5-0.7-0.7-1.7-0.7-3v-2.3c0-0.6-0.1-1.1-0.2-1.5s-0.3-0.7-0.6-1
		c-0.3-0.2-0.6-0.4-0.9-0.5c-0.4-0.1-0.7-0.2-1.2-0.2h-0.9v-2.6H425.9z"/>
</g>
<g class="st1">
	<path d="M373.7,839.7c-1.9,0-3.3-0.5-4.2-1.4s-1.4-2.3-1.4-4.3v-3.5c0-0.9-0.2-1.6-0.6-2.1c-0.4-0.5-1.1-0.7-2.1-0.7h-0.9v-2.6h0.9
		c0.5,0,0.9-0.1,1.3-0.2c0.3-0.1,0.6-0.3,0.8-0.5s0.4-0.5,0.5-0.8s0.1-0.8,0.1-1.2V820c0-0.9,0.1-1.8,0.3-2.5c0.2-0.7,0.5-1.3,1-1.8
		c0.5-0.5,1-0.8,1.7-1.1c0.7-0.2,1.6-0.4,2.5-0.4h1.1v2.6H374c-0.4,0-0.8,0.1-1.2,0.2c-0.4,0.1-0.7,0.3-0.9,0.5
		c-0.3,0.2-0.5,0.5-0.6,0.9s-0.2,0.9-0.2,1.4v2.4c0,0.7-0.1,1.3-0.2,1.8c-0.1,0.5-0.3,0.9-0.5,1.2c-0.2,0.3-0.5,0.6-0.9,0.8
		c-0.4,0.2-0.8,0.3-1.3,0.4c1,0.1,1.7,0.5,2.2,1.1c0.5,0.7,0.7,1.7,0.7,3v3.5c0,0.6,0.1,1.1,0.2,1.5s0.3,0.7,0.6,0.9
		c0.3,0.2,0.6,0.4,0.9,0.5c0.4,0.1,0.7,0.2,1.2,0.2h0.9v2.6H373.7z"/>
	<path d="M384.8,829.2c0.4,0,0.7,0.1,1.1,0.2s0.6,0.3,0.9,0.6s0.4,0.5,0.6,0.9s0.2,0.7,0.2,1.1c0,0.4-0.1,0.7-0.2,1
		s-0.3,0.6-0.6,0.8s-0.5,0.4-0.9,0.6s-0.7,0.2-1.1,0.2c-0.4,0-0.7-0.1-1-0.2s-0.6-0.3-0.8-0.6s-0.4-0.5-0.6-0.8s-0.2-0.7-0.2-1
		c0-0.4,0.1-0.7,0.2-1.1s0.3-0.6,0.6-0.9s0.5-0.4,0.8-0.6S384.5,829.2,384.8,829.2z"/>
	<path d="M399.7,829.2c0.4,0,0.7,0.1,1.1,0.2s0.6,0.3,0.9,0.6c0.2,0.2,0.4,0.5,0.6,0.9s0.2,0.7,0.2,1.1c0,0.4-0.1,0.7-0.2,1
		s-0.3,0.6-0.6,0.8c-0.2,0.2-0.5,0.4-0.9,0.6s-0.7,0.2-1.1,0.2c-0.4,0-0.7-0.1-1-0.2c-0.3-0.1-0.6-0.3-0.8-0.6
		c-0.2-0.2-0.4-0.5-0.6-0.8s-0.2-0.7-0.2-1c0-0.4,0.1-0.7,0.2-1.1s0.3-0.6,0.6-0.9c0.2-0.2,0.5-0.4,0.8-0.6
		C399,829.3,399.3,829.2,399.7,829.2z"/>
	<path d="M414.5,829.2c0.4,0,0.7,0.1,1.1,0.2s0.6,0.3,0.9,0.6s0.4,0.5,0.6,0.9s0.2,0.7,0.2,1.1c0,0.4-0.1,0.7-0.2,1
		s-0.3,0.6-0.6,0.8s-0.5,0.4-0.9,0.6s-0.7,0.2-1.1,0.2c-0.4,0-0.7-0.1-1-0.2s-0.6-0.3-0.8-0.6s-0.4-0.5-0.6-0.8s-0.2-0.7-0.2-1
		c0-0.4,0.1-0.7,0.2-1.1s0.3-0.6,0.6-0.9s0.5-0.4,0.8-0.6S414.2,829.2,414.5,829.2z"/>
	<path d="M425.9,814.4c1.9,0,3.3,0.5,4.2,1.4s1.4,2.3,1.4,4.3v2.3c0,0.9,0.2,1.6,0.6,2.1c0.4,0.5,1.1,0.7,2.1,0.7h0.9v2.6h-0.9
		c-0.5,0-0.9,0.1-1.3,0.2c-0.3,0.1-0.6,0.3-0.8,0.5c-0.2,0.2-0.4,0.5-0.5,0.8s-0.1,0.8-0.1,1.2v3.6c0,0.9-0.1,1.8-0.3,2.5
		c-0.2,0.7-0.5,1.3-1,1.8c-0.5,0.5-1,0.8-1.8,1.1s-1.6,0.4-2.6,0.4h-1.1v-2.6h0.9c0.4,0,0.8,0,1.2-0.2c0.4-0.1,0.7-0.3,0.9-0.5
		c0.3-0.2,0.5-0.6,0.6-0.9s0.2-0.9,0.2-1.4v-3.6c0-0.7,0.1-1.3,0.2-1.8c0.1-0.5,0.3-0.9,0.5-1.2s0.5-0.6,0.9-0.7
		c0.4-0.2,0.8-0.3,1.3-0.4c-1-0.1-1.7-0.5-2.2-1.2c-0.5-0.7-0.7-1.7-0.7-3V820c0-0.6-0.1-1.1-0.2-1.5s-0.3-0.7-0.6-1
		c-0.3-0.2-0.6-0.4-0.9-0.5c-0.4-0.1-0.7-0.2-1.2-0.2h-0.9v-2.6H425.9z"/>
</g>
<polyline class="st8" points="467.6,877.4 467.6,883.4 461.6,883.4 "/>
<line class="st9" x1="449.9" y1="883.4" x2="34" y2="883.4"/>
<polyline class="st8" points="28.1,883.4 22.1,883.4 22.1,877.4 "/>
<line class="st10" x1="22.1" y1="865.5" x2="22.1" y2="249"/>
<polyline class="st8" points="22.1,243 22.1,237 28.1,237 "/>
<line class="st9" x1="39.8" y1="237" x2="455.7" y2="237"/>
<polyline class="st8" points="461.6,237 467.6,237 467.6,243 "/>
<line class="st10" x1="467.6" y1="255" x2="467.6" y2="871.5"/>
<line class="st11" x1="233.8" y1="142.8" x2="233.8" y2="233.5"/>
<circle class="st12" cx="233.8" cy="114.7" r="66.1"/>
<path class="st4" d="M233.8,187.8c-40.4,0-73.2-32.8-73.2-73.1s32.8-73.2,73.1-73.2s73.2,32.8,73.2,73.1v0
	C306.9,155.1,274.1,187.8,233.8,187.8z M233.8,55.6c-32.7,0-59.2,26.5-59.2,59.2s26.5,59.2,59.2,59.2s59.1-26.5,59.1-59.2
	c0,0,0,0,0,0C292.9,82,266.4,55.6,233.8,55.6z"/>
<g class="st1">
	<path class="st4" d="M229.3,142.4h-7.5l-1.3-8.6h-9.2l-1.3,8.6h-6.9l7.6-47.6h10.9L229.3,142.4z M212.2,127.3h7.2l-3.5-24.1h-0.1
		L212.2,127.3z"/>
	<path class="st4" d="M255,106.5v6.2c0,7.6-3.7,11.8-11.2,11.8h-3.5v17.9h-7.5V94.8h11C251.3,94.8,255,98.9,255,106.5z M240.3,101.6
		v16.1h3.5c2.4,0,3.7-1.1,3.7-4.5v-7.1c0-3.4-1.3-4.5-3.7-4.5H240.3z"/>
	<path class="st4" d="M258.4,94.8h7.5v47.6h-7.5V94.8z"/>
</g>
<circle class="st11" cx="233.5" cy="114.9" r="72.9"/>
<ellipse transform="matrix(3.327793e-02 -0.9994 0.9994 3.327793e-02 -234.7336 350.1605)" class="st13" cx="63.6" cy="296.4" rx="31" ry="31.1"/>
<path class="st4" d="M49.7,286.7l6.7,2.3c0.5,0.2,3.2,1.2,7.8,0c5.8-1.5,18.5-4,18.6-4l-0.5-2.4h-0.1l-12-1.7
	c-1.6-0.2-3.2-0.1-4.8,0.1l-16.1,3.1c-2.1-0.1-4.1,1.2-4.8,3.3c-0.4,1.2-0.3,2.5,0.3,3.6c0.3,0.6,0.7,1.1,1.1,1.5
	c-0.8,0.6-1.3,1.4-1.6,2.3c-0.6,1.9,0,3.9,1.6,5.2c-0.7,0.6-1.3,1.4-1.6,2.3c-0.8,2.5,0.6,5.1,3.1,5.9l11.6,3.7
	c0.8,0.2,1.6,0.2,2.3,0.1l20.4-4.7l-0.3-1.2c-0.1-0.6-0.8-1.1-1.4-0.9c0,0,0,0,0,0l-18.5,4.2c-0.8,0.1-1.6,0.1-2.3-0.1l-11-3.5
	c-0.6-0.2-1.1-0.6-1.3-1.1c-0.3-0.5-0.3-1.2-0.2-1.8c0.4-1.2,1.7-1.9,2.9-1.5l9.5,3c0.8,0.2,1.6,0.2,2.3,0.1l20.4-4.7l-0.3-1.2
	c-0.1-0.6-0.8-1.1-1.4-0.9c0,0,0,0,0,0l-18.5,4.2c-0.8,0.1-1.6,0.1-2.3-0.1l-11-3.5c-0.6-0.2-1.1-0.6-1.3-1.1
	c-0.3-0.5-0.3-1.2-0.2-1.8c0.4-1.2,1.7-1.9,2.9-1.5l9.6,3.1c0.8,0.2,1.6,0.2,2.3,0.1l20.4-4.7c0,0-0.1-0.5-0.3-1.2
	c-0.1-0.7-0.8-1.1-1.4-0.9c0,0,0,0,0,0l-18.5,4.2c-0.8,0.2-1.6,0.1-2.3-0.1l-11-3.5c-1.2-0.4-1.9-1.7-1.5-2.9
	c0.4-1.2,1.7-1.9,2.9-1.5C49.6,286.7,49.7,286.7,49.7,286.7z"/>
<ellipse transform="matrix(3.327793e-02 -0.9994 0.9994 3.327793e-02 -583.3558 685.3174)" class="st14" cx="62.6" cy="644.2" rx="31" ry="31.1"/>
<path class="st4" d="M62.3,627.5c-5.1,0-9.2,4.1-9.2,9.2s4.1,9.2,9.2,9.2c5.1,0,9.2-4.1,9.2-9.2c0,0,0,0,0,0
	C71.5,631.6,67.4,627.5,62.3,627.5z"/>
<path class="st4" d="M78.1,653.2c-0.2-0.6-0.6-1.2-0.9-1.7c-1.8-2.7-4.7-4.5-7.9-5c-0.4-0.1-0.8,0-1.2,0.3c-3.4,2.5-8.1,2.5-11.5,0
	c-0.3-0.2-0.8-0.4-1.2-0.3c-3.2,0.5-6.1,2.3-7.9,5c-0.4,0.5-0.7,1.1-0.9,1.7c-0.1,0.2-0.1,0.5,0,0.8c0.3,0.6,0.7,1.1,1.1,1.6
	c0.5,0.8,1.2,1.5,1.8,2.1c0.6,0.6,1.2,1.1,1.8,1.6c6.5,4.8,15.3,4.8,21.8,0c0.6-0.5,1.3-1,1.8-1.6c0.7-0.6,1.3-1.3,1.8-2.1
	c0.4-0.5,0.8-1,1.1-1.6C78.1,653.8,78.2,653.5,78.1,653.2z"/>
<ellipse transform="matrix(0.9985 -5.530038e-02 5.530038e-02 0.9985 -40.4951 4.6708)" class="st15" cx="64.2" cy="734" rx="31" ry="31"/>
<path class="st4" d="M83.8,727.6l-13.2-2l-6-11.9l-6,11.9l-13.2,2.1l9.5,9.4l-2.1,13.2l11.8-6.2l11.9,6L74.4,737L83.8,727.6z
	 M64.7,741.4v-22.2l0,0l4.4,8.7l9.7,1.4l-6.9,6.9l1.6,9.6L64.7,741.4z"/>
<circle class="st16" cx="62.8" cy="824.5" r="31"/>
<path class="st4" d="M82.4,818.1l-13.2-2l-6-11.9l-6,11.9l-13.2,2.1l9.5,9.3l-2.1,13.2l11.8-6.2l11.9,6l-2.2-13L82.4,818.1z
	 M63.3,831.9v-22.2l0,0l4.4,8.7l9.7,1.4l-6.9,6.9l1.6,9.6L63.3,831.9z"/>
</svg>
